<svg width="31" height="31" viewBox="0 0 31 31" fill="none" xmlns="http://www.w3.org/2000/svg">
<g id="Group">
<path id="Vector" d="M13.7149 3.37109C15.7099 3.37096 17.6646 3.93248 19.3553 4.99138C21.046 6.05029 22.4045 7.5638 23.2752 9.35871C24.1459 11.1536 24.4937 13.1574 24.2788 15.1407C24.0639 17.1241 23.2949 19.0069 22.0599 20.5736L26.6249 25.1386C26.8526 25.3743 26.9786 25.6901 26.9758 26.0178C26.9729 26.3456 26.8414 26.6591 26.6097 26.8909C26.3779 27.1226 26.0644 27.2541 25.7367 27.2569C25.4089 27.2598 25.0932 27.1338 24.8574 26.9061L20.2924 22.3411C18.9617 23.3898 17.3995 24.1051 15.7362 24.4272C14.0728 24.7494 12.3566 24.6691 10.7306 24.1931C9.10455 23.7171 7.61595 22.8591 6.38896 21.6907C5.16197 20.5224 4.23218 19.0776 3.67714 17.4768C3.1221 15.8761 2.95792 14.1658 3.1983 12.4886C3.43868 10.8115 4.07664 9.21621 5.05896 7.83579C6.04128 6.45536 7.33948 5.32987 8.84524 4.55321C10.351 3.77655 12.0207 3.37124 13.7149 3.37109ZM13.7149 5.87109C11.56 5.87109 9.49341 6.72712 7.96967 8.25085C6.44594 9.77458 5.58992 11.8412 5.58992 13.9961C5.58992 16.151 6.44594 18.2176 7.96967 19.7413C9.49341 21.2651 11.56 22.1211 13.7149 22.1211C15.8698 22.1211 17.9364 21.2651 19.4602 19.7413C20.9839 18.2176 21.8399 16.151 21.8399 13.9961C21.8399 11.8412 20.9839 9.77458 19.4602 8.25085C17.9364 6.72712 15.8698 5.87109 13.7149 5.87109ZM13.7149 7.12109C15.5383 7.12109 17.287 7.84542 18.5763 9.13473C19.8656 10.424 20.5899 12.1727 20.5899 13.9961C20.5899 15.8195 19.8656 17.5681 18.5763 18.8575C17.287 20.1468 15.5383 20.8711 13.7149 20.8711C11.8916 20.8711 10.1429 20.1468 8.85356 18.8575C7.56425 17.5681 6.83992 15.8195 6.83992 13.9961C6.83992 12.1727 7.56425 10.424 8.85356 9.13473C10.1429 7.84542 11.8916 7.12109 13.7149 7.12109Z" fill="#2C302A"/>
</g>
</svg>
