<svg width="13" height="13" viewBox="0 0 13 13" fill="none" xmlns="http://www.w3.org/2000/svg">
<g id="Frame">
<path id="Vector" fill-rule="evenodd" clip-rule="evenodd" d="M6.33218 1.26395L4.78568 4.59583L1.08818 5.07208C1.01691 5.08114 0.949748 5.11049 0.894678 5.15662C0.839608 5.20276 0.798949 5.26374 0.777539 5.33232C0.756128 5.4009 0.754867 5.47418 0.773905 5.54345C0.792943 5.61273 0.831478 5.67507 0.884928 5.72308L3.6198 8.18495L2.88293 11.8794C2.86874 11.9503 2.87531 12.0237 2.90183 12.0908C2.92835 12.158 2.9737 12.2161 3.03243 12.2581C3.09116 12.3001 3.16077 12.3243 3.2329 12.3277C3.30503 12.3311 3.37662 12.3136 3.43905 12.2773L6.67193 10.4035L9.9063 12.2773C9.9687 12.3135 10.0402 12.3308 10.1122 12.3274C10.1842 12.3239 10.2537 12.2998 10.3124 12.2578C10.371 12.2159 10.4163 12.1579 10.4429 12.0909C10.4694 12.0238 10.4761 11.9506 10.4621 11.8798L9.72518 8.18495L12.4601 5.72308C12.5134 5.67508 12.5518 5.61279 12.5708 5.5436C12.5898 5.47441 12.5885 5.40123 12.5672 5.33273C12.5458 5.26424 12.5052 5.20331 12.4503 5.15718C12.3954 5.11104 12.3283 5.08164 12.2572 5.07245L8.55968 4.59583L7.01205 1.26395C6.98195 1.19911 6.93394 1.14423 6.87367 1.10577C6.81341 1.06731 6.74342 1.04687 6.67193 1.04688C6.60044 1.04687 6.53044 1.06731 6.47018 1.10577C6.40992 1.14423 6.36228 1.19911 6.33218 1.26395Z" fill="#222222"/>
</g>
</svg>
